<?xml version="1.0" encoding="UTF-8"?>
<svg id="Warstwa_1" xmlns="http://www.w3.org/2000/svg" version="1.1" viewBox="0 0 595.3 841.9">
  <!-- Generator: Adobe Illustrator 29.6.0, SVG Export Plug-In . SVG Version: 2.1.1 Build 207)  -->
  <defs>
    <style>
      .st0 {
        fill: #b9b2a3;
      }
    </style>
  </defs>
  <path class="st0" d="M271,301.6c-3-12.7,2.1-22.5,9.5-31.2,12.4-14.5,27.8-24.7,46.2-30,4.1-1.2,8.5-1.1,12.8-1.8,1-.1,2.2-.6,2.7-1.3,3.8-5.2,8.2-7,13.2-5.1,5.5,2,7.8,6.2,7,12.8,0,.2,0,.4.1.7,8.8,4.4,16.7,10.1,23.5,17.3,11.2,11.8,15.2,25.9,12.9,41.8-2.1,14.6-7.7,27.5-18.6,37.8-10.2,9.6-22,12.9-35.6,8.6-.5-.2-1-.2-2-.5,2.8,5.4,5.4,10.3,8,15.3.8,1.5,1.7,2.9,2,4.5.7,3.5,2.9,4.9,6.2,5.3,2.8.3,5.5.9,8.2,1.3,8.5,1.4,17.1,2.7,25.6,4.1,1.7.3,3.5.6,5.2.8,4.3.5,7.8-.9,10.8-4.1,6.7-7.1,17.6-6.3,23.2,1.9,6.3,9.1,5.7,18.8,2.1,28.7-1,2.7-2.5,5.3-4.3,7.4-7.2,8.7-20.2,7.7-25.3-2.3-5.1-9.9-13-15.4-23.5-17.8-3.5-.8-6.9-2-10.7-3.1.7,2,1.4,3.7,1.8,5.4,3.1,12.4,6.2,24.7,9,37.2,2,8.5,3.6,9.6,11.8,6.8,32.1-10.9,67.6,2.7,84.8,32.2,10.3,17.7,14.7,36.4,10.3,56.6-.9,3.9-2.5,7.9-4.5,11.4-2.3,4-6.4,5.6-10.9,4.4-2.2-.6-3.1.5-4.4,1.8-13.9,14.8-30.6,24-51.1,24.9-23.4,1-40.7-9.7-52.8-29.4-1.1-1.7-2-3.6-3-5.2-4.1,2.8-8.1,5.4-12,8.2-17.8,12.6-36.4,23.8-57.5,30.1-27.3,8.1-53.8,5.7-79.4-6.6-3.5-1.7-6.2-1.3-9.2.5-4.5,2.8-9,5.9-13.6,8.6-2.7,1.6-5.6,3-8.6,4-3.1,1-6,.1-8-2.6-1.8-2.4-1.6-5.3.1-7.5,3.2-4.1,6.7-8,10.1-12,.8-.9,1.7-1.8,2.6-2.8-5.3-6.5-10.5-12.9-15.6-19.3-13-16.5-25.2-33.4-33.1-53.1-.4-1-1.9-2.1-2.9-2.1-3.4,0-6.8.3-10.1.7-3.6.4-7.1,1.3-10.7,1.5-2,0-4.3-.6-6.1-1.7-3.4-2.1-4.3-5.6-1.6-8.7,2.9-3.4,6.5-6.3,10.1-8.9,3.8-2.6,8-4.6,12.2-6.9-1.3-4.5-2.8-8.9-4-13.5-11.7-46.5.8-86.7,33.1-120.9,18.1-19.1,41.7-27.4,67.7-28.9,14.7-.9,29.2.7,43.6,4,.8.2,1.5.5,2.6.9ZM483.6,516.7c2-13.2-1.2-25.4-8.3-36.4-13-19.9-31.3-32.2-54.8-36.2-16.5-2.8-31.3,1.1-43.6,12.9-9.7,9.4-15,21.1-17,34.3-3.3,22.2.6,42.7,16.2,59.5,15.1,16.2,33.5,21.7,55,14.5,13.6-4.6,25-12.8,35.7-22.3.6-.5.8-2.3.4-3.1-1.9-4.4-4-8.8-6.2-13.1-2.7-5.5-2.3-6.8,3.2-9.8,3.7-2,7.6-2.6,11.7-2,2.5.3,5,1.1,7.6,1.7ZM176.5,317.4c-16.9,11.7-28.4,24.5-37.3,39.6-14.3,24.4-20,50.3-13.1,78.1,3.8,15.2,7.9,30.3,12.8,45.1,6.9,21.1,20.5,36.5,40.6,46.3,18.4,8.9,37.7,13.7,58.1,14.5,43.1,1.7,75.8-15.7,97.4-53.2,13.8-24.1,20.3-50.4,21.2-78,.4-11.4,1.2-22.9-4.9-33.7-6.2-10.8-11.8-22-20.1-31.4-17.3-19.5-38.6-32.7-63.6-39.6-33.1-9.2-64.5-4.9-91,12.3ZM359.7,398.8c-.2,0-.5,0-.7,0,0,.9,0,1.8,0,2.7.6,33.1-6.7,64.3-23.7,92.8-19.1,31.9-47.3,49.8-84.6,52.3-23.1,1.6-44.8-4.2-65.6-13.8-7.3-3.4-14.4-7.4-22-11.3,7.8,12,17.2,22.1,26.3,32.3,3.2-3.8,6.1-7.4,9.1-10.9.7-.8,2-1.6,2.9-1.4,7.4,1.6,14.5,4.2,19.6,10.3,3.2,3.9,2.7,7.6-1.3,10.7-1.4,1.1-3,2.1-4.5,3.1,0,0,0,.2,0,.2.3.2.7.4,1.1.6,27.7,11.5,55.7,12.6,84,2,20.9-7.9,38.9-20.6,55.6-35.2.8-.7,1.2-2.5,1-3.7-.6-4.6-1.8-9.1-2.3-13.7-1.9-17.7,2-34.2,10.2-49.8.7-1.3,1.6-2.4.2-4.1-5.6-7-5.8-12.9-.9-20.7,2.2-3.4,3.5-4,7.4-3.1,1.9.4,3.7,1,6.2,1.7-1.1-5.7-2-11-3-16.2-1.3,1.3-1.8,2.6-2.6,3.6-1.7,2.2-3.7,4.2-6.7,3.5-2.7-.6-2.5-3.4-2.7-5.3-.8-6.5-1.1-13.1-1.8-19.7-.2-2.4-.8-4.8-1.2-7.1ZM274.5,294.6c1.3-.2,1.9-.2,2.5-.3,16.7-2.5,33.3-2.3,49.8,1.1,15.3,3.1,29.6,8.7,40.9,19.7,5.4,5.2,9.7,11.5,14.7,17.5.1-.1.8-.8,1.3-1.4,17.2-21.7,16.1-49.9-3.7-69.2-16.9-16.4-37.2-22.8-60.2-14.3-18.3,6.7-31.8,19.5-40.9,36.8-1.7,3.1-2.8,6.5-4.4,10.2ZM339.1,342.6c0,.4.2.7.2,1.1,7.9,1.9,15.9,3.3,24.1,1.7,5.4-1,9.8-3.7,12.5-8.7,1.5-2.6,1.6-5-.3-7.4-7.7-10.4-18-17.3-30.1-22.8-1.9,8.3-3.6,16.3-5.4,24.2-1,4.3-.2,5.6,4.2,6.6,1.6.4,3.4.3,5.1.4,0,.5,0,.9,0,1.4-3.4,1.2-6.9,2.3-10.3,3.5ZM424.4,413.5c10.6-7.3,10.7-27.6,1.2-34.3-5.3-3.7-13.4-2.1-16.4,3.4-3.4,6.1-5.1,12.8-4.8,19.8.2,5,2.5,8.9,7,11.1,4.8,2.4,9.5,2.1,13.1,0ZM317.5,320.4c3.5-6.6,8.4-11.8,7.7-19.3-16-1.1-31.7-5.8-48.2-.9,11.6,6.2,22.6,12.1,34.4,18.5-.7-3.5-1.2-5.9-1.8-8.3l.8-.3c2.2,3.2,4.4,6.5,7,10.3ZM329,300.9c-1.5,9.7-7.5,16.2-11.2,23.3,5.6,5.1,11,10.1,16.6,15.3,6.2-10.9,2.9-23.5,7.9-34.6-4.6-1.4-8.8-2.7-13.3-4ZM179.4,574.6c.3.3.7.6,1,.9,14.3-2.9,25-12.8,38-18.8-4.7-6-10.6-8.7-16.4-9.7-5.4,6.3-10.4,12-15.2,17.8-2.6,3.1-4.8,6.5-7.2,9.8ZM401.7,400.4c.2-5,.5-9.2.7-13.8-14.2-1.8-29.9-3.7-45.6-5.7.4,1.7.5,3.2,1.1,4.4.5.8,1.7,1.9,2.6,1.8,11.3-.7,21.6,2.5,31.4,7.7,3,1.6,5.9,3.3,9.9,5.6ZM478.8,539.6c3.9-3.4,5.7-8.3,5.6-13.9,0-4.9-3.1-6.9-7.8-5.1-5.5,2.1-9.1,10.8-6.7,16.1,1.5,3.3,5.8,4.9,8.9,2.9ZM367.8,428.8c6.9-9.3,4.4-25.6-5.6-36.1,3,12.2-.1,24.6,5.6,36.1ZM128.7,464.6c-5.5,6.1-14.7,6.8-18.5,15.2,8-1,15.6.9,23-2.3-1.5-4.2-2.9-8.3-4.5-13ZM382,447.4c-2.8-3.5-7.9-6.4-11.9-6.5-.9,0-2.1.7-2.7,1.5-3.7,4.7-3.1,11.1,1.3,16.9,4.4-3.9,8.8-7.9,13.2-11.8ZM345.6,241.6c4.3.7,8.1,1.4,12.1,2-.1-4.2-1-5.7-3.6-6.5-2.9-.9-5.9.5-8.6,4.4ZM467.3,520.7c-1.9-1.4-3.7-1.6-4.6.4-.4.9,1,2.4,1.8,4.2,1.3-2,2-3.2,2.8-4.6Z"/>
  <path class="st0" d="M184.1,279.6c-5.1,2.4-10.1,4.8-15.2,7.2-7.4,3.4-14.6,7.1-20.6,12.8-6.2,6-10.2,13-11.5,21.7-.7,4.7-1.9,6.4-4.9,8.8-1.4-5.1-.8-10.1.7-14.9,3.5-11.3,10.9-19.7,20.1-26.6,6.5-4.9,13.7-8.5,21.8-9.8,3-.5,6.1-.4,9.2-.6.1.5.3.9.4,1.4Z"/>
  <path class="st0" d="M340.9,577.4c-2.9,14.6-39.1,28.4-58.2,22.1,3.1-1.2,6.2-2.7,9.5-3.4,6.3-1.4,12.8-2.2,19.1-3.6,9.7-2.3,18.7-6.3,26.4-12.8.8-.7,1.8-1.2,3.3-2.2Z"/>
  <path class="st0" d="M454.9,411.5c10.4-23.3,10.1-28.5-3.4-43,4.8,0,8.2,2,11,5.5,7.1,8.9,6.3,25.6-1.9,33.6-1.6,1.6-3.8,2.6-5.7,3.9Z"/>
  <path class="st0" d="M128.5,303.4c1.8,1.4,1.6,2.6,1,4.6-1.3,4.3-2.2,8.7-2.8,13.2-.5,3.6-.2,7.4-.6,11.1-.2,1.7-1.1,3.4-1.8,5.4-6.4-10.4-4.2-26.8,4.2-34.2Z"/>
  <path class="st0" d="M283,606.8c6.3-.4,12.4-4.3,18.9-.1-5.9,5.3-12.5,4.8-19.4,3.7.2-1.1.3-2.2.5-3.5Z"/>
  <path class="st0" d="M458.3,419.8c-.2-1.3-.4-2.4-.5-3,3.9-3.6,7.5-7.1,11.2-10.5.5-.5,1.5-.9,2-.7.5.2.9,1.3.9,1.9-.4,5.4-7.7,12.1-13.6,12.3Z"/>
  <path class="st0" d="M379.4,369.6c9.3-4.6,18.5-9.2,27.8-13.8.1.3.3.6.4.9-8.9,5.3-17,12.1-28.2,12.9Z"/>
  <path class="st0" d="M401,419.2c-6.3-4.8-12.7-9.6-19-14.4.2-.3.4-.5.6-.8,7.7,2.9,13.9,8,19,14.5-.2.2-.4.5-.6.7Z"/>
  <path class="st0" d="M127.1,345.3c-3.6-2-4-4.2-1.4-7.5,3.8,2.5,4.1,4.2,1.4,7.5Z"/>
  <path class="st0" d="M266.7,598.3c2.3-.2,4.5-.4,7.8-.6-1.2,1.9-2,4-2.9,4.1-1.9.1-4.4,0-4.9-3.4Z"/>
  <path class="st0" d="M385.3,361.4c-1,4-4.3,6-9.6,5.3,3.6-2,6.4-3.5,9.6-5.3Z"/>
  <path class="st0" d="M305.8,606c1.3-1.2,2.6-2.3,3.9-3.5.4.2.8.4,1.2.7-.1,1.2.2,3.1-.5,3.6-.9.7-2.6.5-4,.6-.2-.5-.4-.9-.6-1.4Z"/>
  <path class="st0" d="M454.2,421.6c-1.1,1.1-2.2,2.3-3.3,3.4-.4,0-.7-.2-1.1-.2-.1-1.3-.8-3.1-.2-3.7.9-.8,2.6-.7,4-1,.2.5.4,1,.6,1.5Z"/>
  <path class="st0" d="M389.7,415.1c-2.7-1.9-5.3-3.7-8.3-5.8,3.2-.4,6.2,1.5,8.3,5.8Z"/>
  <path class="st0" d="M457.9,527.8c-.9.1-2.1.7-2.6.3-.8-.6-1.8-2-1.6-2.8.5-2.5,1.5-4.9,2.3-7.4.9.2,1.8.4,3,.7-.4,2.9-7.1,5.1-.3,8.7-.3.2-.5.4-.8.6Z"/>
  <path class="st0" d="M295.3,513.5c-36.6,22.3-74.2,23.8-112.4,5.3-23.9-11.6-38.4-31.3-45.5-56.5-8.2-29-6.9-58,1.8-86.6,5.5-18,17.4-31.8,32-43.3,19.9-15.8,42.9-20.6,67.6-19.2,18.5,1.1,35.5,7.2,51.7,15.7,15.3,8.1,29.6,17.4,41.9,29.8,7.9,8,12.1,17.8,14.3,28.6,4.5,21.5,1.8,42.4-5.8,62.9-7.3,19.7-17.2,37.9-32.8,52.4-4.1,3.9-8.6,7.3-12.9,10.9ZM222.4,526.1c27.3,6.6,74.3-10.1,87.7-31-1.5-1.5-3.1-3.1-4.7-4.7-1.9-1.9-3.9-3.7-5.7-5.6-1.9-2.1-1.3-4,1.4-6,4.5,4.4,8.9,8.7,13.4,13.1,8-7.5,19.3-28.2,20.5-37.3-3.4-1.3-6.9-2.5-10.3-4.1-1.7-.8-3.4-2-4.8-3.2-.6-.6-1.1-2-.8-2.7.3-.6,1.7-1.3,2.5-1.1,2.2.4,4.5.9,6.4,1.9,3.2,1.7,6.1,3.8,9.1,5.9.1-.2.4-.6.5-.9,4.9-13,8.2-26.4,8.5-40.4.4-16.9-3.9-32.4-14-46.1-9.9-13.4-23.1-22.7-37.7-30.3-5.5-2.8-5.6-2.8-8,3.1-1.5,3.6-2.7,7.4-4.3,10.9-1.1,2.5-2.8,4.7-6,5.3,0-.7-.4-1.2-.2-1.6,2.7-7.2,5.4-14.4,8.3-22.3-9.2-1.2-18.6-2.5-28.3-3.8-.2,3.4-.2,6.2-.6,8.9-.3,1.9-.9,3.8-1.9,5.4-.9,1.5-2.6,1.6-3.1-.5-.4-2-.6-4.1-.4-6,.3-2.5,1.1-5,1.8-7.7-20.3-1.2-38.8,3-56.1,12.5-14.6,8-27.1,18.5-38.3,31,1.5.8,2.6,1.3,3.6,2,3.1,2,6.3,3.8,9.2,6.2,1.1.9,1.4,2.9,2.1,4.4-7.7-.7-12.5-5.8-18.6-8.9-5.9,9.9-15.9,17.4-16.3,30.1,7.1,2.1,15.3.1,21,6.8-2.1,1-4.2,1.7-6.3,1.6-2.7-.2-5.4-1.3-8.1-1.9-2.4-.5-4.8-.8-7.8-1.3-.2,8.1-.6,15.6-.5,23.1.4,27.7,9.7,51.8,29,71.8,2.8,2.9,3.3,2.9,5.7-.4,2.1-2.9,3.9-6,6.1-8.9.8-1.1,2.2-1.9,3.5-2.3,2.2-.6,3.3.7,2.1,2.7-1.5,2.7-3.5,5.1-5.2,7.7-1.7,2.6-3.4,5.2-5.2,8,13.8,8,28,13.1,43.1,15.7,2.1.4,2.9-.5,3.3-2.2.7-3.1,1.3-6.3,2.2-9.3.9-3.1,2.4-3.9,6.1-3.2-1.3,5.3-2.6,10.6-3.9,15.8ZM139.8,385.4c4.1-5.3,7.6-10.1,11.4-14.7,12.8-15.6,27.8-28.6,46.1-37.5,20.8-10,42.8-12.8,65.6-10.7,3.5.3,7,.8,10.7,1.2-.3-.5-.3-.8-.5-.8-.8-.3-1.5-.6-2.3-.9-16.9-6-34.3-8.1-52-5.8-26.5,3.4-48.8,14.5-64.8,36.5-7,9.6-11.5,20.3-14.3,32.6Z"/>
  <path class="st0" d="M254.4,346c1,2,2.5,3.9,3,6,1,4.4,2.2,8.9,2.2,13.3.1,15.3,0,30.7-.4,46-.1,4.1-1.3,8.1-2.2,12.1-.9,3.8-3.6,6.2-7.3,7.4-2.6.9-5.3,1.7-8.1,2-14.9,1.4-29.8,1.9-44.7.1-4.7-.6-9.2-2.4-13.8-3.6,0-.5-.1-1-.2-1.5,3.5-1.9,6.9-4.5,10.6-5.7,6.5-2.1,13.3-3.4,20.1-4.8,8.6-1.8,17.3-3.4,26-5.2,2.8-.6,4.2-2.1,4.4-5.3,1-13.5,2.1-26.9,3.7-40.3.7-5.9,2.7-11.6,4.2-17.4.3-1,.9-2,1.4-3,.4,0,.7-.2,1.1-.2ZM186.5,427c.1.4.3.8.4,1.1,16,3.7,49.6,2.9,61.8-1.3-2.3-4.2-4.7-8.6-6.9-12.5-7.2,1.5-14.5,3.1-21.8,4.5-5.7,1.1-11.4,1.6-17,2.9-5.6,1.4-11,3.5-16.6,5.3ZM251.1,423.9c.3,0,.5,0,.8-.1,5.7-23.3,4.5-46.9,2.2-70.5-1.3,6.5-2.4,12.9-3.4,19.4-2.1,13.4-3.9,26.9-1.9,40.5.5,3.6,1.5,7.1,2.3,10.7Z"/>
  <path class="st0" d="M256,496.1c-1.3,1.2-2.3,2.1-3.2,3.1-.7.9-1.7,2-1.8,3.1-.4,7.1,9.2,14.4,15.5,11.3,3.2-1.6,4.4-3.4,3.1-6.7-.7-1.7-1.8-3.3-2.5-4.9-.5-1.1-1-2.3-1.1-3.5-.3-3.2,1.1-4.3,4-3.1,2,.8,3.9,1.9,5.9,2.7.6.3,1.9.3,2.2,0,.4-.5.4-1.7,0-2.2-.8-1.4-2.1-2.6-2.8-4-.5-1-.4-2.2-.5-3.4,1,0,2.3-.3,3.1.2,1.6,1,3.2,2.3,4.3,3.8,2,3,2.6,6.4.6,9.6-1.9,3.1-4.9,2.3-7.8,1.4,0,2.6,0,5-.3,7.4-.7,4.4-3.5,7-7.6,7.3-9.1.8-19.5-8.4-19.8-17.5-.2-6.1,2.3-7.6,8.8-4.4Z"/>
  <path class="st0" d="M207.3,340.7c1.1,1.8,2,3.1,2.7,4.5.8,1.9,1.6,3.6,4.6,2.8-.3-1.2-.7-2.4-.9-3.7-.4-2.2-1-4.5-.8-6.7.5-6.3,4.8-8.9,10.5-6.3,2.3,1.1,4.4,2.7,6.5,4.1,3.9,2.7,3.3,6,1.6,9.2-3.4,6.4-14.7,10.3-21.4,7.4-4.2-1.8-5.4-5.8-2.7-11.5ZM226.3,339.7c-1.3-1.2-2-2.4-3-2.7-1.6-.4-3.4-.3-5.2-.4,0,1.4-.2,2.8,0,4.2.1,1.1.6,2.2,1.1,3.2.3.7,1.1,1.7,1.4,1.6,2.1-.3,4.3-.6,5.9-1.7.7-.5-.2-3.1-.3-4.2Z"/>
  <path class="st0" d="M174.8,456c-5.2-1-10.4-2.1-15.3-3,.7,4.5,1.9,8.8,1.9,13.1.1,6.5-3.4,8.2-9.1,5-8.4-4.8-9-13.7-1.5-19.7,8.5-6.8,18.9-5.3,24.2,3.5,0,.4-.2.8-.3,1.1ZM158.2,468.8c-.7-5.1-1.1-9.8-2-14.3-.5-2.4-2.4-2.8-4-.9-2.2,2.6-2.8,5.7-1.7,8.9,1,3.2,2.9,5.6,7.7,6.3Z"/>
  <path class="st0" d="M309.9,410.2c-1.5-4.8-3-9.3-4.3-13.9-.7-2.6.7-4,3.2-4,2.4,0,4.9.2,7.4.4,1.8.1,3.7.6,5.5.6,1,0,2.1-.5,3.1-.8-.5-1.1-.9-2.4-1.6-3.4-1-1.3-2.4-2.3-3.8-3.7,3.9-1.2,8.2.1,9.5,2.7,1.2,2.4.2,6-2.4,8.3-3.8,3.4-8.3,3.9-12.8,1.5-.7-.4-1.4-.7-3-1.6,1.1,3.4,2,6,2.8,8.5.8,2.5.3,4.5-3.4,5.5Z"/>
  <path class="st0" d="M301.6,385.8c.6-1,1-2.2,1.8-3,3.7-4.2,8.4-6.6,13.8-7.5,1.2-.2,2.5,0,3.6.5.8.4,1.4,1.5,1.6,2.4,0,.3-.9,1.2-1.6,1.5-4.1,1.9-8.2,3.9-12.3,5.6-1.9.8-4.2.9-6.2,1.4-.2-.3-.4-.5-.6-.8Z"/>
</svg>